<svg width="24" height="24" viewBox="0 0 24 24" fill="none" xmlns="http://www.w3.org/2000/svg">
<path d="M19.2727 10.0909H22V11.9091H19.2727V10.0909ZM2 10.0909H4.72727V11.9091H2V10.0909ZM12.9091 1V3.72727H11.0909V1H12.9091ZM5.56364 3.27273L7.5 5.21818L6.20909 6.5L4.27273 4.57273L5.56364 3.27273ZM16.5 5.20909L18.4273 3.27273L19.7273 4.57273L17.7909 6.5L16.5 5.20909ZM12 5.54545C13.4466 5.54545 14.834 6.12013 15.8569 7.14305C16.8799 8.16598 17.4545 9.55336 17.4545 11C17.4545 13.0182 16.3545 14.7818 14.7273 15.7273V17.3636C14.7273 17.6047 14.6315 17.836 14.461 18.0065C14.2905 18.177 14.0593 18.2727 13.8182 18.2727H10.1818C9.94071 18.2727 9.70948 18.177 9.53899 18.0065C9.36851 17.836 9.27273 17.6047 9.27273 17.3636V15.7273C7.64545 14.7818 6.54545 13.0182 6.54545 11C6.54545 9.55336 7.12013 8.16598 8.14305 7.14305C9.16598 6.12013 10.5534 5.54545 12 5.54545ZM13.8182 19.1818V20.0909C13.8182 20.332 13.7224 20.5632 13.5519 20.7337C13.3814 20.9042 13.1502 21 12.9091 21H11.0909C10.8498 21 10.6186 20.9042 10.4481 20.7337C10.2776 20.5632 10.1818 20.332 10.1818 20.0909V19.1818H13.8182ZM11.0909 16.4545H12.9091V14.5182C14.4818 14.1182 15.6364 12.6909 15.6364 11C15.6364 10.0356 15.2532 9.11065 14.5713 8.4287C13.8893 7.74675 12.9644 7.36364 12 7.36364C11.0356 7.36364 10.1107 7.74675 9.4287 8.4287C8.74675 9.11065 8.36364 10.0356 8.36364 11C8.36364 12.6909 9.51818 14.1182 11.0909 14.5182V16.4545Z" fill="white"/>
</svg>
